<!DOCTYPE svg PUBLIC "-//W3C//DTD SVG 1.1//EN" "http://www.w3.org/Graphics/SVG/1.1/DTD/svg11.dtd">
<!-- Uploaded to: SVG Repo, www.svgrepo.com, Transformed by: SVG Repo Mixer Tools -->
<svg height="800px" width="800px" version="1.1" id="Capa_1" xmlns="http://www.w3.org/2000/svg" xmlns:xlink="http://www.w3.org/1999/xlink" viewBox="-0.6 -0.6 31.25 31.25" xml:space="preserve" fill="#ffffff" stroke="#ffffff" stroke-width="1.051715">
<g id="SVGRepo_bgCarrier" stroke-width="0"/>
<g id="SVGRepo_tracerCarrier" stroke-linecap="round" stroke-linejoin="round"/>
<g id="SVGRepo_iconCarrier"> <g> <path style="fill:#ffffff;" d="M13.668,10.672h-1.557c-0.189,0-0.348,0.148-0.348,0.342v8.008c0,0.189,0.158,0.344,0.348,0.344 h1.557c0.191,0,0.346-0.154,0.346-0.344v-8.008C14.014,10.82,13.859,10.672,13.668,10.672z"/> <path style="fill:#ffffff;" d="M17.939,10.672h-1.561c-0.189,0-0.342,0.148-0.342,0.342v8.008c0,0.189,0.152,0.344,0.342,0.344 h1.561c0.189,0,0.344-0.154,0.344-0.344v-8.008C18.284,10.82,18.129,10.672,17.939,10.672z"/> <path style="fill:#ffffff;" d="M15.025,0C6.727,0,0,6.729,0,15.029c0,8.297,6.727,15.02,15.025,15.02 c8.301,0,15.023-6.723,15.023-15.02C30.049,6.729,23.326,0,15.025,0z M15.025,27.541c-6.911,0-12.514-5.602-12.514-12.512 c0-6.918,5.603-12.52,12.514-12.52c6.912,0,12.517,5.602,12.517,12.52C27.542,21.939,21.938,27.541,15.025,27.541z"/> </g> </g>
</svg>